# Apple ModelIO OBJ File: Banana_Yellow
mtllib Banana_Yellow.mtl
g 
v -2.2987 14.9719 21.042
v 2.2987 14.9719 21.042
v 2.12295 18.1366 23.5228
v -2.12295 18.1366 23.5228
vn 0 -0.616943 0.787008
vt 0.375 0
vt 0.625 0
vt 0.625 0.25
vt 0.375 0.25
usemtl blinn10SG
f 1/1/1 2/2/1 3/3/1 4/4/1 
s off
g _1
v -8.14973 41.8505 14.0737
v 8.14973 41.8505 14.0737
v 8.14973 60.552 11.7408
v -8.14973 60.552 11.7408
v -10.3782 60.4943 -7.80891
v 10.3782 60.4943 -7.80891
v 10.3782 34.0906 -2.53045
v -10.3782 34.0906 -2.53045
v 7.35583 20.8727 8.65092
v -7.35583 20.8727 8.65092
v 6.52426 28.1501 20.2247
v -6.52426 28.1501 20.2247
v -7.78896 78.3547 14.0737
v 7.78896 78.3547 14.0737
v 5.62059 95.2142 22.9755
v -5.62059 95.2142 22.9755
v 9.79338 89.586 -1.78532
v 6.84352 104.578 12.1437
v -9.79338 89.586 -1.78532
v -6.84352 104.578 12.1437
v 2.21038 101.888 25.768
v -2.21038 101.888 25.768
v 2.21038 105.776 23.3284
v -2.21038 105.776 23.3284
v 1.7794 105.841 30.2735
v -1.7794 105.841 30.2735
v 1.7794 108.97 28.3095
v -1.7794 108.97 28.3095
v -3.91192 22.973 21.4129
v 3.91192 22.973 21.4129
v 4.34899 18.0926 15.3073
v -4.34899 18.0926 15.3073
v -2.12295 18.1366 23.5228
v 2.12295 18.1366 23.5228
v 2.2987 14.9719 21.042
v -2.2987 14.9719 21.042
vn 0 0.123782 0.99231
vn 0 0.002252 0.999997
vn 0 0.009242 -0.999957
vn 0 -0.196035 -0.980597
vn 0.992804 0.019926 0.118084
vn 0.992942 0.009293 0.118234
vn 0.992943 0.009192 0.118235
vn -0.992942 0.009293 0.118234
vn -0.992804 0.019926 0.118084
vn -0.992943 0.009192 0.118235
vn 0 -0.64584 -0.763473
vn 0 -0.69937 -0.714759
vn 0.986206 -0.075411 0.147344
vn 0.977704 -0.119146 0.172916
vn 0.979794 -0.109559 0.167334
vn 0 0.409584 0.912273
vn 0 0.383903 0.923374
vn -0.986206 -0.075411 0.147344
vn -0.979794 -0.109559 0.167334
vn -0.977704 -0.119146 0.172916
vn 0 -0.466911 0.884304
vn 0 -0.456641 0.889651
vn 0.986701 0.047024 0.155594
vn 0.981056 0.073251 0.179343
vn 0.978758 0.082501 0.187685
vn 0 0.680651 -0.732608
vn 0 0.761128 -0.648601
vn -0.986701 0.047024 0.155594
vn -0.978758 0.082501 0.187685
vn -0.981056 0.073251 0.179343
vn 0 -0.386002 0.922498
vn 0.892032 0.276071 0.357859
vn 0 0.984745 -0.174003
vn -0.892032 0.276071 0.357859
vn 0 -0.751721 0.659481
vn 0 -0.798707 0.601721
vn 0.997358 0.038613 0.061529
vn 0.999993 -0.001989 -0.003169
vn 0.999993 0.001989 0.003169
vn 0 0.798706 -0.601721
vn -0.997358 0.038613 0.061529
vn -0.999993 0.001989 0.003169
vn -0.999993 -0.001989 -0.003169
vn -0.992969 -0.001069 0.118367
vn 0 0.202754 -0.97923
vn 0.992969 -0.001069 0.118367
vn 0 -0.129928 0.991523
vn 0 0.270493 0.962722
vn 0.908915 -0.302718 0.286769
vn 0.906914 -0.30742 0.288098
vn 0 -0.912609 -0.408833
vn -0.906914 -0.30742 0.288098
vn -0.908915 -0.302718 0.286769
vn 0 0.399848 0.916581
vn 0.944937 -0.202445 0.25712
vn 0 -0.878368 -0.477985
vn -0.944937 -0.202445 0.25712
vt 0.375 0.25
vt 0.625 0.25
vt 0.625 0.375
vt 0.375 0.375
vt 0.375 0.875
vt 0.625 0.875
vt 0.625 1
vt 0.375 1
vt 0.625 0
vt 0.75 0
vt 0.75 0.25
vt 0.25 0
vt 0.375 0
vt 0.25 0.25
vt 0.375 0.5
vt 0.625 0.5
vt 0.625 0.75
vt 0.375 0.75
vt 0.125 0
vt 0.125 0.25
vt 0.875 0
vt 0.875 0.25
usemtl blinn2SG
f 5/5/2 6/6/2 7/7/3 8/8/3 
f 9/9/4 10/10/4 11/11/5 12/12/5 
f 11/13/6 10/14/7 7/15/8 6/6/6 
f 9/16/9 12/17/10 5/5/10 8/18/11 
f 12/17/12 11/13/12 13/13/13 14/17/13 
f 11/13/14 6/6/14 15/6/15 13/13/16 
f 6/6/17 5/5/17 16/5/18 15/6/18 
f 5/5/19 12/17/19 14/17/20 16/5/21 
f 17/19/22 18/20/22 19/20/23 20/19/23 
f 18/20/24 21/21/24 22/21/25 19/20/26 
f 21/21/27 23/22/27 24/22/28 22/21/28 
f 23/22/29 17/19/29 20/19/30 24/22/31 
f 20/19/23 19/20/23 25/20/32 26/19/32 
f 19/20/26 22/21/25 27/21/33 25/20/33 
f 22/21/28 24/22/28 28/22/34 27/21/34 
f 24/22/31 20/19/30 26/19/35 28/22/35 
f 26/19/36 25/20/36 29/20/37 30/19/37 
f 25/20/38 27/21/38 31/21/39 29/20/40 
f 27/21/34 28/22/34 32/22/41 31/21/41 
f 28/22/42 26/19/42 30/19/43 32/22/44 
f 23/23/45 9/16/9 8/18/11 17/24/45 
f 23/22/46 21/21/46 10/10/4 9/9/4 
f 7/15/8 10/14/7 21/25/47 18/26/47 
f 8/8/3 7/7/3 18/20/48 17/19/48 
f 15/6/18 16/5/18 33/5/49 34/6/49 
f 13/13/16 15/6/15 34/6/50 35/13/51 
f 14/17/13 13/13/13 35/13/52 36/17/52 
f 16/5/21 14/17/20 36/17/53 33/5/54 
f 34/6/49 33/5/49 37/5/55 38/6/55 
f 35/13/51 34/6/50 38/6/56 39/13/56 
f 36/17/52 35/13/52 39/13/57 40/17/57 
f 33/5/54 36/17/53 40/17/58 37/5/58 
s off
g _2
v -2.21038 109.035 35.2546
v 2.21038 109.035 35.2546
v 0 112.054 35.3633
v 2.21038 112.923 32.8149
v -2.21038 112.923 32.8149
v -1.7794 108.97 28.3095
v -1.7794 105.841 30.2735
v 1.7794 108.97 28.3095
v 1.7794 105.841 30.2735
vn 0 -0.035985 0.999352
vn 0.608867 0.421669 0.671919
vn 0 0.946475 0.322778
vn -0.608867 0.42167 0.671919
vn -0.999993 -0.001989 -0.003169
vn -0.999993 0.001989 0.003169
vn -0.997358 -0.038613 -0.061529
vn 0 0.798706 -0.601721
vn 0 0.751721 -0.659482
vn 0.999993 0.001989 0.003169
vn 0.999993 -0.001989 -0.003169
vn 0.997358 -0.038613 -0.061529
vn 0 -0.798707 0.601721
vn 0 -0.841759 0.539854
vt 0.375 0.5
vt 0.625 0.5
vt 0.5 0.625
vt 0.625 0.75
vt 0.375 0.75
usemtl blinn10SG
f 41/27/59 42/28/59 43/29/59 
f 42/28/60 44/30/60 43/29/60 
f 44/30/61 45/31/61 43/29/61 
f 45/31/62 41/27/62 43/29/62 
f 46/31/63 47/27/64 41/27/65 45/31/65 
f 48/30/66 46/31/66 45/31/67 44/30/67 
f 49/28/68 48/30/69 44/30/70 42/28/70 
f 47/27/71 49/28/71 42/28/72 41/27/72 
s off
